<svg id="visual" viewBox="0 0 2000 1000" width="2000" height="1000" xmlns="http://www.w3.org/2000/svg" xmlns:xlink="http://www.w3.org/1999/xlink" version="1.1"><path d="M0 131L500 81L1000 101L1500 71L2000 121L2000 0L1500 0L1000 0L500 0L0 0Z" fill="#0d368f"></path><path d="M0 411L500 411L1000 241L1500 291L2000 461L2000 119L1500 69L1000 99L500 79L0 129Z" fill="#1c44a4"></path><path d="M0 591L500 531L1000 351L1500 411L2000 571L2000 459L1500 289L1000 239L500 409L0 409Z" fill="#2853ba"></path><path d="M0 781L500 611L1000 521L1500 561L2000 681L2000 569L1500 409L1000 349L500 529L0 589Z" fill="#3362d0"></path><path d="M0 891L500 771L1000 601L1500 691L2000 801L2000 679L1500 559L1000 519L500 609L0 779Z" fill="#3d72e7"></path><path d="M0 1001L500 1001L1000 1001L1500 1001L2000 1001L2000 799L1500 689L1000 599L500 769L0 889Z" fill="#4782ff"></path></svg>