<svg id="visual" viewBox="0 0 2000 1000" width="2000" height="1000" xmlns="http://www.w3.org/2000/svg" xmlns:xlink="http://www.w3.org/1999/xlink" version="1.1"><path d="M0 61L222 61L444 61L667 71L889 51L1111 61L1333 51L1556 71L1778 51L2000 61L2000 0L1778 0L1556 0L1333 0L1111 0L889 0L667 0L444 0L222 0L0 0Z" fill="#4782ff"></path><path d="M0 261L222 271L444 221L667 251L889 211L1111 241L1333 201L1556 271L1778 211L2000 251L2000 59L1778 49L1556 69L1333 49L1111 59L889 49L667 69L444 59L222 59L0 59Z" fill="#3e75ec"></path><path d="M0 311L222 311L444 271L667 311L889 271L1111 301L1333 261L1556 331L1778 271L2000 301L2000 249L1778 209L1556 269L1333 199L1111 239L889 209L667 249L444 219L222 269L0 259Z" fill="#3568da"></path><path d="M0 351L222 361L444 311L667 351L889 311L1111 341L1333 301L1556 381L1778 321L2000 351L2000 299L1778 269L1556 329L1333 259L1111 299L889 269L667 309L444 269L222 309L0 309Z" fill="#2b5cc8"></path><path d="M0 511L222 581L444 521L667 581L889 551L1111 551L1333 541L1556 591L1778 541L2000 591L2000 349L1778 319L1556 379L1333 299L1111 339L889 309L667 349L444 309L222 359L0 349Z" fill="#2150b6"></path><path d="M0 621L222 661L444 611L667 671L889 651L1111 661L1333 651L1556 661L1778 631L2000 681L2000 589L1778 539L1556 589L1333 539L1111 549L889 549L667 579L444 519L222 579L0 509Z" fill="#2150b6"></path><path d="M0 761L222 761L444 751L667 801L889 771L1111 761L1333 791L1556 771L1778 771L2000 781L2000 679L1778 629L1556 659L1333 649L1111 659L889 649L667 669L444 609L222 659L0 619Z" fill="#2150b6"></path><path d="M0 851L222 831L444 831L667 861L889 851L1111 831L1333 861L1556 851L1778 831L2000 841L2000 779L1778 769L1556 769L1333 789L1111 759L889 769L667 799L444 749L222 759L0 759Z" fill="#2b5cc8"></path><path d="M0 911L222 901L444 911L667 911L889 911L1111 911L1333 921L1556 911L1778 911L2000 911L2000 839L1778 829L1556 849L1333 859L1111 829L889 849L667 859L444 829L222 829L0 849Z" fill="#3568da"></path><path d="M0 961L222 951L444 961L667 951L889 961L1111 961L1333 961L1556 961L1778 951L2000 951L2000 909L1778 909L1556 909L1333 919L1111 909L889 909L667 909L444 909L222 899L0 909Z" fill="#3e75ec"></path><path d="M0 1001L222 1001L444 1001L667 1001L889 1001L1111 1001L1333 1001L1556 1001L1778 1001L2000 1001L2000 949L1778 949L1556 959L1333 959L1111 959L889 959L667 949L444 959L222 949L0 959Z" fill="#4782ff"></path></svg>